<svg width="150px" height="100px" viewBox="0 0 150 100">
    <g id="main_group">
        <path stroke="blue" stroke-linejoin="round" id="sheamusPath" stroke-width="5px" d="M24.5,19.4375 C24.5,19.4375 17.5,13.5625 17.5,13.5625 C17.5,13.5625 11.125,19.1875 11.125,19.1875 C11.125,19.1875 18.1875,24.625 18.1875,24.625 C18.1875,24.625 25.25,27.5 25.25,27.5 C25.25,27.5 22.9375,34.375 22.9375,34.375 C22.9375,34.375 12.9375,34.9375 12.9375,34.9375 C12.9375,34.9375 10.1875,29.5625 10.1875,29.5625 C10.1875,29.5625 31.75,14.0625 31.75,14.0625 C31.75,14.0625 32.1875,34.6875 32.1875,34.6875 C32.1875,34.6875 32.9375,23.8125 32.9375,23.8125 C32.9375,23.8125 38.875,20.5 38.875,20.5 C38.875,20.5 42.875,24.6875 42.875,24.6875 C42.875,24.6875 42.9375,35.0625 42.9375,35.0625 C42.9375,35.0625 49.1875,28.125 49.1875,28.125 C49.1875,28.125 61,27.625 61,27.625 C61,27.625 59.5,21.6875 59.5,21.6875 C59.5,21.6875 51.5,21.5625 51.5,21.5625 C51.5,21.5625 49.1875,32.4375 49.1875,32.4375 C49.1875,32.4375 56,35.75 56,35.75 C56,35.75 61.75,32.0625 61.75,32.0625 C61.75,32.0625 68,23.9375 68,23.9375 C68,23.9375 73.25,20 73.25,20 C73.25,20 77.875,25.625 77.875,25.625 C77.875,25.625 77.75,31.9375 77.75,31.9375 C77.75,31.9375 71,35.25 71,35.25 C71,35.25 66.9375,30.25 66.9375,30.25 C66.9375,30.25 72.25,27.75 72.25,27.75 C72.25,27.75 78.75,30.0625 78.75,30.0625 C78.75,30.0625 85.375,20.3125 85.375,20.3125 C85.375,20.3125 85.4375,34.6875 85.4375,34.6875 C85.4375,34.6875 85.5,24.3125 85.5,24.3125 C85.5,24.3125 90.8125,20.375 90.8125,20.375 C90.8125,20.375 95.5625,23.0625 95.5625,23.0625 C95.5625,23.0625 95.1875,35.125 95.1875,35.125 C95.1875,35.125 95.5625,23.0625 95.5625,23.0625 C95.5625,23.0625 101.5625,20.3125 101.5625,20.3125 C101.5625,20.3125 104.9375,24.5 104.9375,24.5 C104.9375,24.5 105.25,34.875 105.25,34.875 C105.25,34.875 112.125,20.4375 112.125,20.4375 C112.125,20.4375 112.9375,34.125 112.9375,34.125 C112.9375,34.125 117.9375,35.6875 117.9375,35.6875 C117.9375,35.6875 121.6875,31.625 121.6875,31.625 C121.6875,31.625 122.75,21.5625 122.75,21.5625 C122.75,21.5625 122.8125,20.375 122.8125,20.375 C122.8125,20.375 123.1875,34.875 123.1875,34.875 C123.1875,34.875 139.1875,23.4375 139.1875,23.4375 C139.1875,23.4375 133.375,20.3125 133.375,20.3125 C133.375,20.3125 129.4375,24.0625 129.4375,24.0625 C129.4375,24.0625 134.4375,28.0625 134.4375,28 C134.4375,27.9375 140.1875,31.0625 140.1875,31.0625 C140.1875,31.0625 136.125,35.8125 136.125,35.8125 C136.125,35.8125 130.3125,34.3125 130.3125,34.3125 C130.3125,34.3125 128.9375,31.3125 128.9375,31.3125 " fill="none" stroke-linecap="round" transform="">
            <animate values="0,1739;1739,0;" attributeType="XML" begin="0; animate1.end+10s" id="sheamusAnimate" repeatCount="0" attributeName="stroke-dasharray" fill="freeze" dur="10"></animate>
        </path>
    </g>
</svg>
