<svg width="200" height="141" xmlns="http://www.w3.org/2000/svg">
 <!-- Created with Method Draw - http://github.com/duopixel/Method-Draw/ -->
 <g>
  <title>background</title>
  <rect fill="#fff" id="canvas_background" height="143" width="202" y="-1" x="-1"/>
  <g display="none" overflow="visible" y="0" x="0" height="100%" width="100%" id="canvasGrid">
   <rect fill="url(#gridpattern)" stroke-width="0" y="0" x="0" height="100%" width="100%"/>
  </g>
 </g>
 <g>
  <title>Layer 1</title>
  <line stroke-linecap="null" stroke-linejoin="null" id="svg_7" y2="30.15254" x2="161.374704" y1="49.402447" x1="101.624995" fill-opacity="null" stroke-width="1.5" stroke="#666666" fill="none"/>
  <text stroke="#000" transform="matrix(1.8355683540368772,0,0,1.8355683540368772,-300.50906115983054,-215.30122905464452) " font-weight="bold" xml:space="preserve" text-anchor="start" font-family="Helvetica, Arial, sans-serif" font-size="24" id="svg_1" y="188.661559" x="164.842328" stroke-width="0" fill="#007fff">Sheamus</text>
  <path stroke="#ff0000" id="svg_2" d="m100.000002,32.715464c16.904019,-45.617222 83.134518,0 0,58.650714c-83.134518,-58.650714 -16.904019,-104.267936 0,-58.650714z" stroke-width="1.5" fill="#ff0000"/>
  <path stroke="#005fbf" id="svg_4" d="m193.518823,72.634186l-26.341333,0c-1.321856,0 -2.394667,1.064195 -2.394667,2.375436l0,26.129796c0,1.311241 1.072811,2.375436 2.394667,2.375436l26.341333,0c1.321856,0 2.394667,-1.064195 2.394667,-2.375436l0,-26.129796c0,-1.311241 -1.072811,-2.375436 -2.394667,-2.375436zm-19.194451,28.096657l-4.789333,0l0,-16.628052l4.789333,0l0,16.628052zm-2.394667,-18.409629c-1.655912,0 -2.993333,-1.329056 -2.993333,-2.969295s1.337421,-2.969295 2.993333,-2.969295s2.993333,1.329056 2.993333,2.969295s-1.337421,2.969295 -2.993333,2.969295zm19.157333,18.409629l-4.789333,0l0,-10.095603c0,-0.475087 -0.482525,-1.253042 -0.822568,-1.440702c-0.449,-0.250608 -1.509837,-0.271987 -1.99356,-0.040382l-1.973205,0.94186l0,10.634827l-4.789333,0l0,-16.628052l4.789333,0l0,0.729259c1.895379,-0.85872 4.52592,-0.774392 6.309947,0.21854c1.894181,1.052318 3.26872,3.401624 3.26872,5.58465l0,10.095603z" stroke-width="1.5" fill="#007fff"/>
  <path stroke="#005fbf" id="svg_5" d="m160.835658,88.254814c-1.376895,-0.231584 -2.809965,-0.384063 -3.973619,-0.425335l-0.205216,-0.006879c0.047005,-0.103181 0.082545,-0.173115 0.094009,-0.183433c0.025222,-0.020636 0.045858,-0.107767 0.048151,-0.192605c0,-0.047005 0.020636,-0.199483 0.052737,-0.40126c0.315276,0.011465 0.733732,0.020636 1.190022,0.024076c1.762104,0.013757 3.605606,0.155918 4.870148,0.379477c0.753222,0.132989 1.002003,0.128403 0.445972,-0.006879c-0.56291,-0.136428 -2.232151,-0.337058 -3.562041,-0.424189c-0.89309,-0.060762 -2.173682,-0.083691 -2.92805,-0.07108c0.021783,-0.130696 0.047005,-0.276296 0.073373,-0.425335c0.10662,-0.576668 0.142161,-1.156775 0.144454,-2.311257c0.002293,-1.790765 -0.094009,-2.283742 -0.677556,-3.468032c-0.237317,-0.483805 -0.505587,-0.894236 -0.830035,-1.265688c0.283175,-0.835767 0.276296,-2.130117 -0.017197,-3.265109c-0.241902,-0.930923 -0.32674,-0.990539 -1.170532,-0.811691c-0.715389,0.152479 -1.288617,0.359987 -2.023496,0.730293c-0.347376,0.175408 -0.826595,0.448265 -1.173972,0.662652c-0.905701,-0.318715 -1.842356,-0.529663 -2.842066,-0.643162c-1.013468,-0.114646 -3.497839,-0.050444 -4.379465,0.112353c-0.862135,0.159357 -1.638287,0.354255 -2.341065,0.585839c-0.350816,-0.21668 -0.859843,-0.509027 -1.223269,-0.69246c-0.738318,-0.371452 -1.311547,-0.577814 -2.029228,-0.730293c-0.841499,-0.179994 -0.92863,-0.119232 -1.169386,0.811691c-0.298079,1.149896 -0.300372,2.466028 -0.005732,3.299502c0.034394,0.095156 0.05503,0.162797 0.063055,0.215534c-1.194608,1.504151 -1.584403,3.18715 -1.325304,5.53624c0.067641,0.612208 0.171969,1.173972 0.317569,1.688731c-0.762394,-0.004586 -1.846942,0.022929 -2.629972,0.073373c-1.332183,0.088277 -3.001424,0.286614 -3.564334,0.423043c-0.554885,0.135282 -0.308397,0.139868 0.445972,0.008025c1.264542,-0.222413 3.109191,-0.366866 4.870148,-0.379477c0.332472,-0.001146 0.643162,-0.008025 0.910287,-0.014904c0.080252,0.27171 0.171969,0.530809 0.276296,0.777298l-0.008025,0.001146c-1.163654,0.040126 -2.595578,0.192605 -3.972473,0.424189c-1.032958,0.173115 -2.557745,0.519345 -2.735446,0.619087c-0.186872,0.104328 -0.034394,0.081398 0.765833,-0.121524c1.459439,-0.369159 3.356825,-0.652334 5.707062,-0.849524l0.262539,-0.022929c0.504441,1.171679 1.281739,2.065915 2.380044,2.762961c0.671824,0.427628 1.748347,0.866721 2.290621,0.935509c0.149039,0.018343 0.5824,0.107767 0.963024,0.197191c0.38177,0.089424 1.128113,0.223559 1.657776,0.300372l0.012611,0c-0.010318,0.006879 -0.01949,0.011465 -0.028661,0.018343c-0.642016,0.333619 -1.059326,0.852964 -1.340208,1.670387c-0.12611,0.037833 -0.283175,0.089424 -0.45285,0.147893c-0.606476,0.206362 -0.842646,0.248781 -1.457147,0.253367c-0.63743,0.004586 -0.788762,-0.022929 -1.169386,-0.201776c-0.553739,-0.257953 -1.069644,-0.732586 -1.413581,-1.298935c-0.574375,-0.946973 -1.567206,-1.616504 -2.394948,-1.616504c-0.707364,0 -0.841499,0.286614 -0.33018,0.705071c0.770419,0.629405 1.34594,1.271421 1.58211,1.762104c0.132989,0.27515 0.337058,0.700485 0.455143,0.94468c0.124964,0.260246 0.392088,0.613354 0.646602,0.85755c0.59845,0.570935 1.176265,0.843792 2.0384,0.972195c0.577814,0.084838 0.719975,0.084838 1.402117,-0.002293c0.329033,-0.040126 0.606476,-0.087131 0.855257,-0.1456c0,0.279735 0,0.60189 0,0.980221c0,2.024643 -0.024076,2.67583 -0.104328,2.866142c-0.151332,0.36228 -0.490683,0.734879 -0.820863,0.902261c-0.329033,0.167383 -0.431068,0.351962 -0.292346,0.521638c0.076813,0.091717 0.224706,0.107767 0.721121,0.075666c0.942387,-0.058469 1.608479,-0.406992 1.94783,-1.021493c0.108913,-0.197191 0.134135,-0.593865 0.168529,-2.657487c0.036687,-2.23903 0.052737,-2.454564 0.198337,-2.774425c0.088277,-0.190312 0.215534,-0.396674 0.286614,-0.45285c0.119232,-0.098595 0.127257,0.096302 0.127257,2.774425c-0.001146,2.955565 -0.030954,3.312113 -0.32674,3.880756c-0.066494,0.12955 -0.192605,0.298079 -0.280882,0.378331c-0.154772,0.141014 -0.22012,0.502148 -0.112353,0.611061c0.177701,0.176554 1.068498,-0.100888 1.554595,-0.483805c0.827742,-0.655773 0.926337,-1.198047 0.933216,-5.114343l0.003439,-2.297499l0.251074,0.024076l0.251074,0.022929l0.041272,3.004863c0.047005,3.383194 0.053883,3.432491 0.629405,4.085972c0.32674,0.369159 0.655773,0.573228 1.191169,0.732586c0.716535,0.215534 0.932069,-0.116939 0.450557,-0.693606c-0.523931,-0.627112 -0.549153,-0.866721 -0.520491,-4.578948c0.01949,-2.380044 0.01949,-2.380044 0.173115,-2.241323c0.323301,0.293493 0.385209,0.775005 0.385209,3.007156c0,2.772132 0.079106,3.035817 1.05818,3.519622c0.457436,0.223559 0.585839,0.251074 1.171679,0.253367c0.623672,0.002293 0.661506,-0.006879 0.684435,-0.169676c0.01949,-0.131843 -0.057323,-0.221266 -0.348523,-0.398967c-0.38177,-0.235024 -0.646602,-0.535395 -0.812838,-0.913726c-0.063055,-0.1456 -0.105474,-1.099452 -0.134135,-3.063332c-0.041272,-2.743471 -0.050444,-2.868435 -0.221266,-3.298356c-0.230438,-0.577814 -0.5824,-1.034104 -1.028372,-1.336769c-0.115792,-0.075666 -0.231584,-0.138721 -0.38177,-0.185726c0.18458,-0.018343 0.363427,-0.037833 0.536542,-0.063055c1.80223,-0.239609 2.754936,-0.439093 3.519622,-0.734879c1.61765,-0.622526 2.71137,-1.65663 3.304088,-3.122948c0.052737,-0.130696 0.105474,-0.254513 0.150186,-0.354255l0.45629,0.037833c2.351383,0.198337 4.248769,0.481512 5.708208,0.851817c0.800227,0.202923 0.952706,0.226998 0.765833,0.120378c-0.174261,-0.097449 -1.699049,-0.442532 -2.73086,-0.615647zm-6.894791,-0.03554c-0.267124,0.586986 -1.012321,1.341354 -1.614211,1.63714c-0.593865,0.293493 -1.524787,0.517052 -2.579528,0.623672c-0.721121,0.073373 -4.742891,0.095156 -5.40669,0.029808c-2.197758,-0.215534 -3.429052,-0.638576 -4.337046,-1.485808c-0.859843,-0.804813 -1.261102,-1.897386 -1.191169,-3.24218c0.044712,-0.841499 0.247635,-1.370016 0.778444,-2.012032c0.482658,-0.584693 0.990539,-0.945827 1.588989,-1.12926c0.501002,-0.153625 2.0384,-0.167383 4.105462,-0.034394c0.913726,0.058469 1.669241,0.058469 2.581821,0c2.162217,-0.136428 3.605606,-0.121524 4.138709,0.043565c0.83806,0.259099 1.6016,0.956145 2.060183,1.884775c0.206362,0.415017 0.246488,0.591572 0.276296,1.232441c0.041272,0.882772 -0.111206,1.820573 -0.40126,2.452271zm-10.902804,-3.790186c-1.230148,-0.215534 -1.932926,1.890507 -0.989392,2.965884c0.448265,0.510173 0.846085,0.593865 1.343647,0.284321c0.460876,-0.287761 0.710803,-0.825449 0.710803,-1.522495c0,-0.929776 -0.423043,-1.613065 -1.065058,-1.72771zm7.466873,0.12611c-1.230148,-0.215534 -1.934073,1.888214 -0.990539,2.964737c0.449411,0.510173 0.846085,0.595011 1.344794,0.283175c0.459729,-0.286614 0.710803,-0.825449 0.710803,-1.522495c0,-0.926337 -0.423043,-1.611918 -1.065058,-1.725417zm-3.308674,4.141002c-0.026369,0.084838 -0.154772,0.210948 -0.284321,0.278589c-0.327887,0.168529 -0.564057,0.11006 -0.910287,-0.205216c-0.214387,-0.193751 -0.311836,-0.295786 -0.377184,-0.092863c-0.060762,0.188019 0.321008,0.565203 0.615647,0.680995c0.270564,0.107767 0.464315,0.111206 0.757808,-0.011465c0.2912,-0.121524 0.545713,-0.448265 0.545713,-0.660359c0,-0.197191 -0.283175,-0.188019 -0.347376,0.010318zm-0.363427,-0.659213c0.186872,-0.16509 0.229291,-0.504441 0.050444,-0.684435s-0.542274,-0.152479 -0.684435,0.049298c-0.16509,0.23617 -0.076813,0.416164 0.041272,0.607622c0.183433,0.142161 0.429921,0.170822 0.592718,0.027515z" stroke-width="1.5" fill="#007fff"/>
  <line stroke-linecap="null" stroke-linejoin="null" id="svg_6" y2="49.902444" x2="100.124999" y1="69.15235" x1="40.37529" fill-opacity="null" stroke-width="1.5" stroke="#666666" fill="none"/>
  <line stroke-linecap="null" stroke-linejoin="null" id="svg_8" y2="30.402539" x2="160.624705" y1="28.652548" x1="156.624724" fill-opacity="null" stroke-width="1.5" stroke="#666666" fill="none"/>
  <line transform="rotate(85.78160095214844 160.1247100830078,31.77753639221192) " stroke-linecap="null" stroke-linejoin="null" id="svg_9" y2="32.652528" x2="162.124697" y1="30.902537" x1="158.124717" fill-opacity="null" stroke-width="1.5" stroke="#666666" fill="none"/>
 </g>
</svg>
